<?xml version="1.0" encoding="UTF-8"?>
<!DOCTYPE svg PUBLIC "-//W3C//DTD SVG 1.1//EN" "http://www.w3.org/Graphics/SVG/1.1/DTD/svg11.dtd">
<!-- Creator: CorelDRAW X8 -->
<svg xmlns="http://www.w3.org/2000/svg" xml:space="preserve" width="185mm" height="185mm" version="1.1" style="shape-rendering:geometricPrecision; text-rendering:geometricPrecision; image-rendering:optimizeQuality; fill-rule:evenodd; clip-rule:evenodd"
viewBox="0 0 18500 18500"
 xmlns:xlink="http://www.w3.org/1999/xlink">
 <defs>
  <style type="text/css">
   <![CDATA[
    .str1 {stroke:#393185;stroke-width:200}
    .str0 {stroke:#393185;stroke-width:150}
    .str2 {stroke:#393185;stroke-width:7.62}
    .str3 {stroke:#EF7F1A;stroke-width:50;stroke-linecap:round}
    .fil4 {fill:none}
    .fil3 {fill:#393185}
    .fil1 {fill:#69F246}
    .fil0 {fill:#FFFBDB}
    .fil2 {fill:#393185;fill-rule:nonzero}
   ]]>
  </style>
 </defs>
 <g id="Слой_x0020_1">
  <metadata id="CorelCorpID_0Corel-Layer"/>
  <g id="_2991024174176">
   <circle class="fil0 str0" cx="9250" cy="9250" r="6950"/>
   <path class="fil1 str1" d="M9250 800c4667,0 8450,3783 8450,8450 0,4667 -3783,8450 -8450,8450 -4667,0 -8450,-3783 -8450,-8450 0,-4667 3783,-8450 8450,-8450zm0 -550c4971,0 9000,4029 9000,9000 0,4971 -4029,9000 -9000,9000 -4971,0 -9000,-4029 -9000,-9000 0,-4971 4029,-9000 9000,-9000z"/>
   <g>
    <path class="fil2 str2" d="M1308 10497c-23,-106 -7,-198 47,-276 54,-78 130,-126 229,-143 85,-15 164,-4 237,35 96,50 156,135 177,255 21,120 -3,220 -73,300 -55,64 -126,103 -214,119 -99,17 -188,-2 -266,-58 -78,-55 -124,-133 -137,-232zm30 -11c11,61 50,102 118,123 56,17 131,17 227,0 114,-20 194,-55 242,-105 33,-35 45,-77 36,-128 -6,-34 -19,-61 -40,-80 -26,-26 -63,-42 -112,-50 -49,-8 -111,-6 -185,7 -88,16 -152,36 -193,60 -41,24 -68,51 -82,80 -13,28 -17,59 -11,93zm-114 -697l21 -2c20,37 44,63 72,78 27,15 55,22 83,19 6,0 9,-2 12,-4 3,-3 4,-5 4,-7 0,-2 -2,-5 -4,-9 -7,-9 -10,-21 -12,-35 -1,-20 5,-37 19,-53 14,-15 32,-24 52,-26 22,-1 42,5 60,21 18,15 28,34 30,58 2,28 -7,54 -28,76 -20,22 -50,34 -88,37 -47,4 -91,-7 -130,-32 -39,-26 -70,-66 -91,-121zm-10 -758l650 383 -3 -129c-2,-61 -7,-103 -15,-127 -13,-40 -36,-73 -69,-101 -33,-28 -76,-47 -131,-56l0 -20 246 22 15 620 -651 -384 2 101c1,39 3,64 6,77 4,23 13,45 27,65 13,20 31,37 52,50 22,13 49,23 82,29l0 19 -198 -14 -13 -535zm362 -553c19,-63 41,-107 64,-132 33,-35 73,-51 122,-47 51,3 91,27 122,70 36,53 51,128 44,223l-24 344 -18 -1c3,-32 1,-53 -4,-65 -5,-11 -12,-20 -21,-25 -9,-5 -32,-9 -69,-12l-440 -31c-37,-3 -60,-2 -70,2 -10,3 -18,11 -24,22 -7,11 -11,31 -14,62l-17 -1 23 -324c6,-78 17,-132 33,-163 16,-31 39,-55 67,-72 29,-17 59,-24 90,-22 32,3 60,17 84,42 24,26 41,69 52,130zm-27 181c4,-48 1,-83 -8,-107 -9,-23 -23,-41 -41,-55 -19,-13 -43,-21 -73,-23 -30,-2 -55,2 -75,12 -20,11 -35,27 -47,48 -12,22 -19,57 -22,106l266 19zm39 3l217 15 25 2c17,1 31,-2 41,-10 10,-9 15,-22 17,-39 2,-26 -3,-51 -13,-74 -10,-23 -26,-41 -47,-54 -22,-14 -46,-21 -74,-23 -31,-3 -60,2 -86,13 -26,12 -45,30 -57,55 -12,25 -20,63 -23,115zm-211 -773l271 49 3 -13c7,-43 0,-76 -23,-100 -23,-24 -60,-43 -111,-58l3 -19 350 64 -4 19c-38,-3 -71,-1 -98,8 -26,8 -45,20 -57,35 -11,15 -20,39 -25,71l187 34c37,6 59,9 68,7 9,-1 17,-6 24,-14 6,-7 11,-21 15,-39l7 -40c11,-63 6,-115 -16,-158 -22,-43 -61,-78 -117,-105l4 -18 206 68 -104 576 -18 -3 4 -22c4,-19 3,-35 -1,-48 -4,-10 -10,-18 -21,-24 -7,-5 -27,-11 -61,-17l-440 -80c-30,-5 -49,-8 -57,-7 -12,1 -22,5 -29,13 -12,11 -20,27 -24,48l-4 22 -17 -3 101 -557 198 35 -4 20c-50,0 -87,7 -111,21 -24,13 -44,34 -59,64 -10,17 -19,51 -28,101l-12 70zm413 -808l352 -148c50,-21 85,-41 106,-60 15,-14 25,-31 31,-50l17 5 -96 339 -17 -5c4,-22 5,-36 2,-44 -3,-8 -8,-12 -16,-15 -13,-3 -43,4 -89,23l-230 96 13 30 179 51c34,9 56,13 65,12 10,-2 19,-7 28,-16 9,-9 17,-26 24,-50l17 4 -93 329 -17 -4 6 -22c5,-19 6,-35 3,-48 -2,-10 -8,-19 -18,-26 -7,-6 -27,-13 -60,-23l-430 -121c-34,-10 -55,-14 -64,-13 -10,2 -19,7 -28,15 -10,9 -17,23 -22,41l-6 22 -17 -5 91 -324 17 5c-6,22 -8,40 -4,53 2,10 8,18 17,26 7,6 27,14 60,23l204 58 -127 -298c-18,-41 -36,-65 -52,-69 -13,-4 -24,0 -36,12 -5,6 -12,23 -21,51l-17 -5 72 -254 16 5c-4,23 -5,42 -2,57 3,15 17,51 42,109l100 234zm629 -595l16 7 -130 328 -16 -7 8 -21c7,-18 10,-34 8,-48 -2,-9 -7,-19 -15,-27 -7,-6 -26,-16 -57,-29l-416 -165c-32,-13 -53,-19 -63,-19 -9,1 -19,5 -29,12 -10,8 -19,21 -26,39l-8 21 -16 -7 130 -328 16 7 -8 20c-7,18 -10,34 -8,48 2,10 6,19 15,28 6,6 25,16 57,28l416 165c32,13 53,20 63,19 9,0 19,-4 29,-12 10,-8 19,-21 26,-38l8 -21zm-416 -739l209 87 -9 19c-55,-14 -107,-11 -153,9 -47,21 -80,51 -98,92 -13,31 -16,59 -8,85 9,25 24,43 45,52 14,6 28,9 41,7 18,-2 39,-10 62,-24 16,-10 49,-35 97,-75 68,-57 123,-91 166,-102 43,-11 85,-7 126,11 51,23 87,63 106,120 19,57 15,116 -13,179 -8,19 -19,37 -30,52 -12,16 -29,34 -52,56 -12,12 -21,22 -25,32 -3,8 -4,17 -2,29 3,12 9,23 19,34l-7 16 -234 -104 7 -16c72,16 133,12 185,-11 51,-23 87,-56 107,-100 15,-34 18,-66 8,-94 -9,-29 -26,-48 -51,-60 -15,-6 -31,-8 -48,-7 -17,2 -35,8 -55,18 -19,11 -48,32 -85,63 -53,44 -95,74 -125,90 -30,16 -61,25 -90,27 -30,3 -60,-2 -89,-15 -49,-22 -83,-59 -102,-111 -18,-51 -15,-105 9,-160 9,-20 20,-38 33,-55 11,-13 25,-27 44,-43 19,-17 30,-29 34,-37 3,-8 4,-15 1,-22 -3,-7 -13,-16 -29,-28l6 -14zm401 -699l158 92 -8 15c-42,-12 -75,-17 -97,-15 -23,2 -44,10 -65,24 -11,8 -25,26 -41,53l-26 45 454 261c31,18 50,27 60,28 9,1 20,-2 31,-8 11,-6 21,-17 31,-34l11 -19 15 8 -176 306 -15 -8 11 -20c10,-17 14,-32 14,-46 0,-10 -3,-19 -11,-29 -5,-8 -22,-20 -52,-37l-454 -261 -24 42c-23,39 -31,73 -25,100 9,39 34,74 73,105l-10 17 -158 -91 304 -528zm257 -400c59,-91 136,-144 229,-161 94,-16 181,4 264,62 70,50 117,114 141,193 32,104 13,206 -57,306 -70,99 -159,152 -264,159 -84,6 -163,-17 -236,-69 -82,-58 -130,-134 -146,-229 -15,-95 8,-182 69,-261zm29 13c-35,51 -37,108 -4,171 27,51 80,105 160,161 94,67 175,99 244,98 48,-1 87,-22 116,-64 20,-28 30,-57 30,-85 -1,-36 -15,-75 -44,-115 -29,-40 -74,-82 -135,-125 -73,-52 -133,-84 -179,-96 -46,-12 -84,-13 -113,-2 -30,11 -55,30 -75,57zm417 -582l537 23 -220 -191c-31,-27 -56,-40 -75,-41 -25,-1 -50,13 -74,42l-13 -11 147 -169 13 11c-16,24 -25,42 -27,53 -2,11 0,23 6,36 7,13 22,30 47,51l426 371 -11 12 -727 -24 327 283c29,26 55,36 77,32 23,-5 41,-16 56,-33l11 -12 13 11 -158 183 -13 -12c24,-28 35,-53 33,-74 -1,-21 -16,-43 -43,-67l-363 -315 -22 0c-24,-2 -41,0 -53,5 -11,4 -24,14 -38,29l-13 -11 157 -182zm1012 -517l126 144c23,28 40,44 50,48 10,4 20,5 33,1 12,-3 30,-14 53,-35l12 13 -262 228 -12 -14c24,-20 38,-36 43,-48 4,-12 5,-23 3,-32 -3,-11 -16,-29 -40,-57l-291 -335c-24,-27 -40,-43 -50,-47 -10,-5 -21,-5 -33,-2 -12,3 -30,15 -53,35l-12 -13 238 -206c62,-54 111,-89 147,-105 36,-17 74,-21 112,-14 38,8 71,27 97,58 33,38 47,81 41,129 -4,31 -18,64 -43,99l274 67c35,8 59,12 71,11 17,-1 32,-7 47,-18l12 14 -162 139 -367 -90 -34 30zm-217 -251l194 224 21 -19c35,-31 59,-57 71,-78 11,-21 15,-45 11,-70 -5,-25 -19,-51 -42,-78 -34,-39 -68,-60 -102,-63 -35,-2 -72,14 -113,49l-40 35zm626 -508l160 225 11 -7c36,-25 53,-54 53,-88 0,-33 -12,-72 -38,-118l15 -12 206 290 -16 11c-25,-29 -51,-50 -75,-63 -25,-12 -47,-17 -66,-14 -19,3 -41,14 -68,32l111 156c21,30 36,48 43,53 8,5 16,7 26,6 11,-1 24,-7 39,-18l33 -23c52,-37 85,-78 99,-124 14,-46 11,-98 -10,-157l15 -10 100 193 -477 339 -11 -14 19 -13c16,-12 27,-24 32,-36 5,-9 5,-20 2,-32 -1,-8 -12,-27 -32,-55l-259 -364c-18,-25 -29,-40 -35,-45 -9,-8 -20,-11 -31,-11 -15,-1 -32,5 -50,18l-18 13 -10 -14 462 -328 116 163 -16 11c-36,-34 -68,-55 -94,-62 -27,-8 -56,-6 -88,4 -18,6 -48,24 -90,53l-58 41zm767 -558l117 193 -18 10c-36,-44 -80,-72 -130,-83 -50,-10 -94,-5 -132,17 -29,17 -48,39 -56,64 -8,26 -7,49 5,69 8,13 18,23 29,30 17,8 38,14 64,17 19,1 60,0 123,-4 88,-6 153,-1 194,15 42,16 73,44 96,82 28,49 33,103 15,160 -18,57 -56,103 -115,137 -18,11 -37,19 -55,25 -19,6 -44,11 -75,14 -17,3 -30,7 -39,12 -8,4 -14,12 -19,22 -5,11 -6,24 -5,39l-15 8 -128 -221 15 -9c49,55 101,88 156,100 55,12 104,6 146,-19 32,-18 53,-42 62,-71 9,-28 6,-54 -7,-78 -8,-14 -20,-25 -34,-34 -15,-8 -34,-14 -55,-17 -22,-3 -58,-3 -106,0 -69,5 -120,5 -154,0 -34,-5 -64,-16 -90,-31 -25,-16 -46,-37 -62,-64 -27,-47 -33,-97 -18,-150 16,-53 49,-94 102,-124 19,-11 38,-20 59,-25 15,-5 36,-8 61,-10 24,-2 41,-5 48,-10 8,-4 13,-10 14,-17 2,-7 0,-20 -7,-40l14 -7zm530 156l85 168c17,33 29,52 38,59 8,6 19,10 32,9 12,0 32,-7 60,-20l8 15 -308 156 -8 -16c28,-14 46,-26 53,-36 8,-11 11,-21 11,-31 0,-11 -9,-33 -26,-66l-199 -393c-16,-33 -29,-53 -37,-59 -9,-7 -19,-10 -32,-10 -13,0 -33,7 -60,21l-8 -15 263 -134c87,-44 157,-60 211,-48 53,12 92,41 115,87 20,40 25,79 15,120 -10,40 -34,76 -72,108 -25,22 -72,50 -141,85zm-150 -297l132 262c11,-4 18,-8 23,-10 37,-19 59,-44 68,-75 9,-32 2,-70 -21,-116 -23,-45 -50,-73 -80,-83 -30,-11 -65,-7 -104,13l-18 9zm377 -224l326 -127 6 16 -16 6c-25,10 -41,19 -48,28 -7,8 -11,18 -11,29 -1,10 6,34 20,70l121 309c22,57 41,92 57,107 16,15 35,25 60,30 24,4 51,0 81,-11 34,-14 60,-33 78,-57 18,-25 28,-53 29,-85 1,-32 -11,-81 -37,-148l-101 -257c-11,-29 -22,-48 -33,-58 -10,-10 -21,-15 -32,-17 -17,-1 -38,3 -63,13l-7 -16 219 -86 6 16 -13 6c-18,6 -31,16 -40,28 -9,11 -13,25 -13,42 0,11 5,30 15,56l94 240c29,74 45,130 48,166 3,37 -9,77 -36,119 -27,43 -73,76 -138,102 -55,21 -100,31 -135,28 -49,-4 -87,-19 -116,-43 -29,-25 -54,-63 -74,-116l-121 -309c-14,-36 -25,-58 -33,-66 -7,-7 -17,-11 -29,-13 -12,-1 -31,3 -58,14l-6 -16zm1254 -93c67,-3 115,2 146,15 45,19 73,52 86,99 14,49 6,95 -24,138 -38,53 -103,92 -195,118l-331 94 -5 -17c30,-9 50,-17 59,-26 9,-8 15,-18 16,-28 2,-11 -2,-33 -12,-69l-120 -424c-10,-36 -18,-58 -25,-66 -7,-8 -17,-13 -29,-15 -13,-3 -34,0 -64,9l-5 -17 313 -88c75,-21 130,-30 165,-25 35,4 65,17 90,39 25,21 42,47 51,76 9,32 5,63 -11,94 -16,31 -51,62 -105,93zm-179 36c46,-13 79,-27 98,-44 19,-16 31,-35 38,-57 6,-22 5,-48 -3,-77 -8,-28 -20,-50 -37,-66 -17,-15 -37,-24 -61,-28 -24,-3 -60,2 -107,15l72 257zm11 38l59 209 7 24c5,17 13,29 24,35 11,7 25,8 42,3 25,-7 47,-20 65,-37 18,-17 30,-38 35,-63 5,-25 4,-51 -3,-77 -9,-30 -23,-56 -42,-76 -20,-21 -44,-33 -71,-36 -28,-2 -67,3 -116,18zm1081 -135l17 238 -591 107 -3 -17 22 -4c19,-3 34,-10 45,-19 8,-6 13,-15 15,-27 2,-9 0,-30 -6,-64l-80 -439c-6,-35 -12,-56 -17,-64 -5,-8 -14,-14 -26,-18 -12,-5 -27,-5 -46,-2l-22 4 -3 -17 355 -65 3 17 -29 6c-19,3 -34,10 -45,19 -7,6 -13,15 -16,27 -2,9 0,30 6,64l78 425c6,34 12,56 17,65 6,8 15,14 27,16 9,2 29,0 60,-6l56 -10c35,-7 63,-18 84,-35 21,-16 38,-40 51,-70 12,-30 21,-72 27,-127l21 -4zm447 173l2 17 -350 44 -2 -17 22 -3c20,-3 35,-8 46,-17 8,-5 14,-14 17,-26 2,-8 2,-30 -3,-64l-55 -443c-4,-35 -9,-56 -13,-65 -5,-8 -13,-14 -25,-20 -12,-5 -27,-6 -46,-4l-22 3 -2 -17 350 -44 2 17 -22 3c-20,3 -35,8 -46,16 -8,6 -13,15 -17,27 -2,8 -2,30 3,64l55 443c4,35 9,56 13,65 5,8 14,14 25,19 12,6 28,7 46,5l22 -3zm442 -415l245 292c35,41 65,69 90,84 18,10 37,15 56,14l1 17 -352 10 -1 -17c22,-3 37,-7 43,-12 6,-5 9,-11 9,-19 0,-14 -16,-40 -48,-78l-160 -191 -25 21 5 186c1,35 4,57 8,66 4,8 12,16 24,22 11,6 30,8 55,7l0 18 -342 9 0 -17 22 -1c20,0 36,-4 47,-11 9,-6 15,-14 20,-25 3,-8 4,-30 3,-64l-12 -447c-1,-35 -4,-56 -8,-65 -4,-9 -11,-16 -22,-22 -12,-7 -27,-9 -46,-9l-22 1 -1 -18 337 -9 0 17c-23,1 -40,5 -52,12 -8,5 -15,13 -20,24 -3,9 -5,30 -4,65l6 211 247 -210c34,-29 51,-53 50,-70 0,-13 -8,-23 -22,-30 -8,-4 -26,-6 -55,-6l0 -17 263 -8 1 18c-24,2 -42,7 -56,14 -13,7 -43,32 -91,73l-193 165zm819 254l-236 -18 -35 64c-11,21 -17,39 -18,54 -1,19 5,34 20,44 8,6 30,12 65,17l-1 17 -225 -17 2 -17c24,-2 45,-11 62,-26 16,-15 38,-48 65,-99l283 -520 9 1 202 572c19,55 35,90 49,105 11,11 26,18 47,22l-1 17 -327 -25 1 -17 14 1c26,2 45,-1 56,-7 7,-5 12,-13 12,-23 1,-6 0,-12 -1,-19 -1,-3 -5,-16 -12,-39l-31 -87zm-13 -38l-83 -238 -121 223 204 15zm909 -339l-35 223 -20 -3c0,-58 -15,-107 -46,-147 -31,-41 -69,-65 -112,-73 -33,-6 -62,-2 -84,12 -23,14 -37,33 -41,57 -2,14 -1,28 3,41 7,17 20,35 38,54 13,13 45,39 96,77 71,52 118,98 139,137 20,39 27,80 19,124 -10,56 -41,100 -92,132 -50,32 -109,42 -176,30 -21,-4 -41,-9 -59,-17 -18,-8 -40,-20 -66,-37 -14,-9 -27,-15 -37,-17 -8,-1 -18,0 -29,5 -10,5 -20,14 -28,26l-17 -3 45 -251 17 3c2,73 20,132 54,177 35,44 76,71 124,79 36,7 68,2 93,-14 25,-16 40,-37 45,-63 3,-16 2,-32 -4,-48 -6,-17 -16,-33 -30,-49 -15,-17 -42,-40 -82,-69 -55,-40 -94,-74 -117,-100 -22,-25 -38,-53 -48,-81 -9,-29 -11,-58 -6,-89 10,-54 38,-95 84,-126 45,-30 98,-40 157,-29 22,4 42,10 62,19 15,7 32,18 52,32 20,15 35,23 44,24 8,2 16,1 21,-4 6,-4 13,-16 21,-35l15 3zm330 768l-4 17 -344 -79 4 -17 22 5c19,4 35,4 49,0 9,-3 17,-9 24,-19 6,-7 12,-27 20,-61l101 -435c8,-34 11,-56 10,-65 -2,-9 -8,-19 -17,-27 -9,-9 -23,-16 -42,-20l-21 -5 3 -17 344 80 -4 16 -21 -5c-19,-4 -35,-4 -49,0 -9,3 -17,9 -25,19 -5,7 -12,27 -20,61l-100 435c-8,34 -11,56 -10,65 2,10 8,19 17,28 9,9 23,15 41,19l22 5zm1077 -346l-59 173 -16 -5c3,-44 2,-76 -5,-98 -6,-21 -18,-41 -36,-59 -10,-9 -30,-19 -60,-30l-49 -16 -168 496c-11,33 -16,55 -15,64 1,10 5,19 13,29 9,10 22,18 40,24l21 7 -5 16 -335 -113 6 -16 21 7c18,6 34,8 48,5 9,-2 18,-7 27,-16 6,-7 14,-26 25,-59l168 -496 -46 -16c-43,-14 -78,-16 -103,-4 -36,16 -66,47 -89,92l-18 -6 58 -174 577 195zm439 194c100,41 167,106 201,195 34,89 31,179 -11,270 -35,79 -89,137 -162,176 -96,51 -200,52 -311,2 -111,-51 -180,-127 -207,-230 -21,-81 -13,-162 24,-244 41,-92 107,-154 197,-187 90,-33 180,-26 269,18zm-7 32c-57,-26 -113,-17 -169,28 -45,36 -88,98 -128,187 -47,105 -64,191 -50,259 10,46 39,80 85,101 32,15 61,19 89,13 36,-7 71,-29 105,-64 34,-36 67,-89 98,-157 37,-81 57,-146 60,-193 3,-48 -4,-85 -20,-112 -16,-28 -39,-48 -70,-62z"/>
    <path class="fil2 str2" d="M13509 2421l-109 198 -18 -10c20,-54 22,-105 7,-154 -16,-49 -43,-84 -81,-106 -29,-17 -57,-23 -83,-17 -27,6 -46,19 -58,40 -7,13 -11,26 -10,40 0,18 6,39 17,63 8,17 29,52 65,105 49,73 77,132 84,176 6,43 -2,84 -24,123 -28,49 -72,80 -130,93 -59,14 -118,3 -177,-31 -18,-10 -35,-22 -49,-35 -14,-14 -31,-33 -50,-57 -10,-14 -20,-24 -29,-29 -8,-4 -17,-6 -29,-5 -12,1 -24,6 -36,15l-15 -8 128 -222 15 9c-23,69 -26,131 -9,184 18,54 47,93 89,117 33,19 64,25 93,18 29,-6 51,-21 64,-45 8,-13 12,-29 12,-46 0,-17 -4,-36 -12,-57 -8,-20 -26,-51 -53,-91 -39,-57 -64,-102 -77,-134 -13,-32 -18,-63 -18,-93 1,-30 9,-58 25,-86 27,-47 67,-77 120,-90 53,-13 106,-4 159,26 19,11 36,24 51,39 12,11 24,27 39,47 14,21 25,33 33,38 7,4 14,5 21,3 7,-2 18,-11 31,-26l14 8zm145 545l-122 171c-21,29 -32,47 -34,57 -2,9 0,20 5,31 5,12 16,24 31,34l18 13 -10 15 -287 -206 10 -14 18 13c16,11 31,18 45,19 10,1 20,-1 30,-8 8,-5 22,-21 42,-48l260 -364c20,-28 31,-47 33,-56 2,-10 1,-20 -4,-32 -5,-12 -16,-23 -31,-34l-18 -13 10 -14 287 205 -10 14 -19 -13c-15,-11 -30,-17 -44,-19 -10,-1 -20,2 -31,8 -7,5 -21,21 -41,49l-112 156 196 140 112 -156c20,-29 31,-48 33,-57 2,-9 1,-20 -5,-31 -5,-12 -15,-24 -31,-35l-18 -13 10 -14 287 206 -10 14 -18 -13c-16,-11 -31,-18 -44,-19 -10,-1 -20,2 -31,8 -7,4 -21,20 -41,48l-260 364c-21,28 -32,47 -34,56 -2,10 -1,20 5,32 5,12 15,23 31,34l18 13 -10 14 -287 -205 10 -14 18 12c16,12 31,18 44,19 10,2 20,-1 31,-7 8,-5 21,-21 41,-49l123 -171 -196 -140zm821 535l-16 381c-2,54 2,95 10,122 6,20 17,36 32,49l-11 13 -267 -230 11 -13c19,13 32,20 40,20 8,1 15,-2 20,-8 9,-10 15,-40 17,-90l10 -249 -33 -1 -121 140c-23,27 -36,45 -39,55 -2,9 -2,20 3,32 5,12 16,26 35,43l-11 13 -259 -223 12 -14 17 15c14,13 29,20 42,23 10,2 20,0 31,-5 8,-4 23,-19 46,-45l292 -338c23,-27 35,-45 38,-54 3,-9 3,-19 -1,-31 -4,-13 -14,-25 -28,-37l-17 -15 11 -13 255 220 -11 13c-17,-15 -33,-24 -46,-27 -10,-2 -20,0 -31,5 -9,4 -24,19 -47,45l-138 160 323 11c46,1 74,-5 85,-18 9,-10 10,-22 4,-37 -3,-8 -15,-22 -37,-41l12 -13 199 172 -11 13c-19,-14 -36,-23 -51,-27 -14,-3 -53,-6 -116,-7l-254 -9zm670 357l-210 180 9 10c28,33 59,48 92,45 33,-3 71,-20 114,-50l13 15 -269 232 -12 -15c26,-28 45,-55 55,-81 10,-26 13,-48 8,-67 -4,-18 -17,-40 -38,-64l-145 124c-28,25 -44,41 -48,49 -5,7 -6,16 -4,26 1,10 9,23 21,37l27 31c41,48 85,77 132,87 47,10 99,1 155,-25l12 14 -183 117 -382 -443 13 -11 15 17c13,14 26,24 39,29 9,3 19,3 31,-1 8,-3 26,-15 52,-37l338 -292c24,-21 37,-34 42,-40 6,-10 9,-20 8,-31 -1,-16 -9,-32 -23,-49l-15 -17 14 -11 370 429 -152 131 -13 -15c31,-39 49,-72 54,-99 4,-27 0,-56 -13,-87 -8,-18 -28,-46 -61,-85l-46 -53zm490 525l-146 516 236 -170c34,-24 53,-45 58,-63 6,-24 -2,-52 -25,-82l14 -10 131 182 -14 10c-20,-21 -35,-34 -45,-38 -11,-5 -23,-5 -37,-2 -14,3 -34,14 -60,33l-459 330 -9 -14 191 -702 -351 253c-32,23 -48,46 -49,68 -1,23 6,44 19,62l10 13 -14 10 -142 -196 15 -10c22,31 43,47 64,50 21,3 46,-6 76,-27l389 -280 6 -22c6,-22 9,-40 7,-52 -2,-12 -8,-27 -20,-44l14 -10 141 195zm653 1005l-159 92 -9 -16c32,-30 52,-55 62,-76 9,-20 13,-43 11,-68 -1,-14 -9,-35 -25,-62l-25 -45 -455 261c-30,17 -48,30 -54,37 -5,8 -8,18 -9,31 0,13 5,28 14,44l11 19 -15 9 -175 -306 15 -9 11 20c10,16 20,28 32,35 9,5 19,7 32,6 8,-1 28,-10 57,-27l455 -261 -25 -42c-22,-40 -47,-63 -74,-72 -38,-11 -80,-8 -127,10l-10 -17 159 -91 303 528zm371 729l-204 99 -8 -19c47,-32 79,-73 94,-122 16,-48 15,-93 -4,-133 -14,-31 -33,-52 -58,-62 -25,-11 -48,-11 -69,-1 -14,6 -25,15 -33,26 -10,15 -17,36 -22,62 -4,19 -7,60 -8,123 -3,88 -14,152 -34,192 -20,39 -50,68 -91,86 -52,24 -105,24 -160,1 -56,-23 -98,-66 -126,-128 -9,-19 -15,-39 -19,-58 -4,-19 -7,-44 -8,-75 0,-17 -3,-31 -7,-40 -4,-8 -11,-15 -21,-21 -10,-6 -23,-9 -38,-8l-7 -16 233 -106 7 15c-59,44 -97,92 -114,146 -17,54 -16,102 5,146 15,34 37,57 64,69 28,12 54,12 79,1 14,-7 27,-17 37,-31 10,-14 17,-32 23,-53 5,-22 8,-57 9,-106 2,-69 7,-120 15,-153 9,-33 22,-62 40,-86 18,-24 41,-43 70,-56 49,-22 99,-23 150,-3 51,20 89,58 114,113 9,20 16,40 20,61 2,16 4,36 3,61 0,25 1,42 5,50 4,8 9,13 16,15 7,3 20,2 40,-3l7 14zm-190 527l-200 67c-33,12 -53,20 -60,27 -7,6 -12,16 -15,28 -2,13 -1,28 5,46l8 21 -17 6 -113 -335 16 -5 7 21c7,18 15,32 26,41 7,7 17,11 29,11 9,1 29,-4 62,-15l423 -144c33,-11 53,-20 60,-26 7,-6 12,-16 15,-28 3,-13 1,-28 -5,-46l-8 -21 17 -6 113 334 -16 6 -7 -21c-6,-19 -15,-32 -25,-41 -8,-7 -17,-11 -30,-12 -9,-1 -29,4 -62,16l-182 61 78 228 182 -62c33,-11 53,-20 60,-26 7,-6 12,-16 14,-29 3,-13 1,-28 -5,-46l-7 -21 17 -5 113 334 -16 6 -7 -21c-7,-19 -15,-33 -26,-41 -7,-7 -17,-11 -29,-12 -9,-1 -30,4 -62,15l-423 144c-33,11 -53,20 -61,26 -7,7 -11,16 -14,29 -3,13 -1,28 5,46l7 21 -16 5 -114 -334 17 -6 7 21c6,19 15,33 25,42 7,6 17,10 30,11 8,1 29,-4 61,-15l200 -68 -77 -227zm141 964l-53 -231 -71 -14c-24,-4 -43,-4 -57,-1 -19,4 -31,15 -37,32 -3,10 -2,32 4,67l-17 4 -51 -219 17 -4c9,22 24,40 43,51 20,12 58,23 114,33l581 115 2 9 -486 363c-47,35 -75,61 -85,79 -8,13 -10,30 -7,51l-17 4 -74 -320 17 -4 3 13c6,26 14,43 24,52 6,6 15,8 25,5 6,-1 12,-3 17,-7 3,-1 14,-9 34,-23l74 -55zm32 -24l203 -150 -249 -49 46 199zm208 610l-209 27c-35,4 -56,9 -64,14 -8,5 -15,13 -20,25 -5,12 -7,27 -4,45l3 23 -18 2 -45 -350 18 -2 3 22c2,19 8,34 16,45 6,8 15,14 27,17 8,3 29,2 63,-3l444 -57c34,-4 56,-9 64,-13 8,-5 15,-13 20,-25 5,-12 6,-27 4,-46l-3 -22 17 -3 45 350 -17 3 -3 -23c-2,-19 -8,-34 -16,-45 -6,-8 -15,-13 -27,-17 -8,-2 -30,-2 -64,3l-190 24 30 239 191 -25c35,-4 56,-9 64,-14 8,-4 15,-13 20,-25 5,-12 7,-27 4,-46l-3 -22 18 -2 45 350 -18 2 -2 -21c-3,-20 -9,-35 -17,-46 -6,-8 -15,-14 -27,-17 -8,-3 -29,-2 -63,3l-444 57c-34,4 -56,9 -64,13 -8,5 -15,13 -20,26 -5,12 -6,27 -4,46l3 21 -17 3 -45 -350 17 -3 3 22c2,20 8,35 16,46 6,8 15,13 27,17 8,2 30,2 64,-3l209 -27 -31 -238zm-61 975l-6 -238 -66 -27c-23,-9 -41,-13 -56,-13 -19,0 -33,8 -42,24 -5,9 -8,31 -10,67l-18 0 -5 -225 17 -1c5,24 15,44 32,59 17,16 52,34 105,56l546 229 0 10 -549 257c-53,25 -86,45 -99,60 -11,12 -16,28 -18,49l-17 0 -8 -328 18 0 0 13c1,27 5,45 13,55 5,8 13,11 23,11 6,0 12,-1 19,-3 3,-1 15,-6 37,-16l84 -39zm37 -17l228 -107 -233 -98 5 205zm60 629l-191 -13c-36,-3 -60,-3 -69,1 -10,4 -18,12 -25,22 -6,11 -11,32 -13,63l-17 -1 25 -346 17 1c-2,32 -1,53 4,65 5,11 12,20 21,25 9,5 32,9 68,11l442 32c37,3 60,2 70,-2 9,-3 17,-11 24,-22 6,-11 11,-32 13,-63l17 2 -22 314c-6,82 -16,141 -30,178 -14,37 -37,67 -70,89 -32,21 -68,31 -109,28 -50,-4 -90,-25 -120,-63 -19,-25 -33,-58 -40,-100l-241 146c-31,19 -50,33 -58,42 -11,12 -18,28 -20,46l-19 -1 16 -213 324 -196 3 -45zm330 24l-295 -21 -2 28c-3,46 -1,81 6,105 6,24 20,43 41,57 21,15 50,24 85,26 51,4 90,-5 116,-28 27,-22 42,-60 46,-114l3 -53zm-594 1200l395 280 -61 268 -17 -4 5 -22c4,-19 4,-35 0,-49 -3,-9 -9,-17 -19,-24 -7,-6 -27,-12 -61,-20l-436 -99c-34,-8 -55,-11 -65,-9 -9,2 -18,7 -27,17 -9,9 -15,23 -19,42l-5 21 -17 -4 78 -344 17 4 -5 21c-4,20 -4,36 0,49 3,9 9,18 19,25 7,5 27,12 61,19l489 112 -544 -391 2 -12 657 -121 -466 -106c-32,-8 -53,-11 -60,-12 -18,1 -33,7 -47,19 -13,12 -23,33 -30,63l-17 -4 51 -226 17 4 -1 7c-4,14 -5,28 -2,42 2,14 6,25 13,34 7,8 18,16 33,23 3,1 20,6 50,12l418 95c34,8 56,11 65,10 9,-2 18,-8 27,-17 9,-10 16,-24 20,-42l5 -22 17 4 -62 270 -478 87zm-301 875l76 -225 -54 -49c-18,-16 -34,-26 -47,-31 -19,-6 -35,-3 -48,8 -8,7 -19,27 -33,59l-16 -5 72 -214 16 6c-4,24 -1,46 10,66 11,20 37,50 79,88l435 402 -3 9 -604 54c-58,6 -96,13 -114,23 -13,7 -24,20 -32,39l-17 -5 105 -311 16 6 -4 13c-9,25 -11,43 -7,56 3,8 9,14 18,18 6,1 12,3 19,3 3,0 17,-1 41,-2l92 -8zm40 -4l251 -22 -186 -172 -65 194zm191 743l-19 -9c0,-41 -8,-76 -25,-102 -17,-27 -39,-46 -64,-57 -5,-3 -9,-3 -13,-2 -3,1 -6,2 -7,4 0,2 0,5 0,10 1,11 -1,23 -7,36 -8,18 -22,30 -42,37 -20,7 -39,6 -58,-2 -20,-9 -34,-25 -43,-47 -8,-22 -7,-44 3,-65 11,-26 32,-44 60,-53 29,-10 60,-7 96,9 43,20 76,50 98,91 21,42 29,92 21,150zm-273 547l-203 -99 9 -18c55,17 106,17 154,-1 48,-18 82,-47 102,-86 16,-30 20,-59 13,-84 -7,-26 -21,-45 -42,-56 -13,-6 -27,-9 -40,-8 -19,1 -40,8 -63,20 -17,9 -51,32 -102,69 -70,53 -128,84 -171,93 -43,8 -85,2 -125,-18 -50,-26 -83,-68 -99,-126 -16,-58 -9,-117 22,-177 10,-19 21,-36 34,-51 12,-15 31,-33 54,-53 14,-11 23,-21 27,-30 4,-8 5,-18 4,-29 -2,-12 -7,-24 -17,-35l8 -16 228 117 -8 16c-71,-20 -133,-20 -185,0 -53,20 -90,51 -113,94 -17,34 -21,65 -13,94 8,29 24,49 48,62 14,7 30,10 47,10 17,-1 35,-6 56,-15 19,-10 49,-29 88,-58 56,-41 99,-69 130,-83 31,-14 62,-22 92,-22 30,-1 59,6 87,20 48,25 80,63 96,116 16,53 10,106 -18,159 -10,20 -22,38 -36,54 -11,12 -26,25 -46,41 -20,15 -32,26 -36,34 -4,8 -5,15 -2,22 2,7 11,17 27,30l-7 14zm-100 145l-188 295 -15 -9 9 -15c15,-22 22,-39 23,-50 0,-12 -2,-22 -8,-30 -6,-9 -26,-24 -59,-45l-279 -179c-51,-32 -88,-50 -109,-53 -22,-3 -43,1 -66,12 -22,10 -42,29 -59,56 -20,31 -29,62 -29,92 0,31 8,59 26,86 18,26 57,59 117,98l233 148c26,17 46,26 60,28 15,1 27,-1 36,-6 15,-9 30,-24 44,-47l15 9 -126 197 -15 -9 8 -12c10,-16 15,-31 15,-46 1,-15 -4,-29 -14,-42 -7,-9 -22,-21 -45,-36l-217 -139c-68,-43 -113,-78 -137,-106 -24,-28 -38,-67 -41,-117 -3,-50 14,-105 52,-164 31,-49 62,-83 93,-102 41,-25 81,-36 119,-33 37,2 80,19 127,49l280 179c33,21 55,32 65,34 11,1 21,-1 32,-7 10,-6 23,-21 38,-45l15 9zm-1174 890l-171 -167 371 -472 14 11 -14 18c-12,15 -19,30 -21,43 -1,10 1,20 7,31 4,8 19,22 46,44l352 276c27,22 46,34 55,36 9,3 19,2 31,-3 12,-5 24,-14 36,-29l14 -18 13 11 -223 284 -14 -11 19 -23c12,-16 19,-31 21,-44 2,-10 -1,-21 -6,-32 -4,-7 -20,-22 -47,-43l-340 -268c-27,-21 -46,-33 -56,-36 -10,-3 -20,-1 -31,5 -7,5 -21,20 -41,45l-34 44c-23,28 -36,55 -41,82 -5,27 -2,55 9,86 10,30 32,68 64,113l-13 17zm-456 163l-13 -12 244 -256 13 12 -16 17c-13,14 -22,28 -25,41 -2,10 -1,20 4,31 3,8 17,24 42,48l323 309c25,24 43,38 51,41 9,4 20,4 32,0 13,-3 25,-12 38,-26l16 -16 12 12 -243 255 -13 -12 15 -16c14,-14 22,-28 25,-41 3,-10 2,-20 -3,-32 -3,-8 -17,-24 -42,-47l-323 -309c-26,-25 -43,-38 -52,-42 -9,-3 -19,-3 -32,1 -12,3 -25,12 -38,25l-15 17zm-81 1002l-12 -13c14,-17 22,-34 24,-49 2,-22 -6,-68 -23,-138l-65 -280 -114 -118c-24,-25 -41,-40 -49,-44 -9,-3 -19,-4 -32,-1 -12,3 -25,11 -38,23l-27 26 -12 -12 273 -263 12 12 -25 25c-14,13 -23,27 -27,40 -3,10 -2,20 2,32 3,8 17,25 40,49l95 98 317 100c63,19 102,28 119,27 16,-2 32,-10 48,-25l12 13 -234 225 -12 -13 10 -10c15,-13 23,-25 24,-35 2,-9 1,-16 -4,-21 -8,-9 -39,-22 -92,-38l-244 -76 53 231c13,58 26,92 37,104 6,7 15,9 25,8 14,-2 33,-13 56,-33l12 13 -149 143zm-626 -133l186 -147 -18 -70c-6,-24 -14,-41 -23,-52 -12,-15 -27,-22 -44,-20 -11,2 -30,12 -60,32l-11 -14 177 -139 11 14c-17,18 -26,38 -28,61 -2,23 4,62 18,117l144 574 -7 6 -536 -285c-51,-28 -87,-42 -107,-44 -16,-1 -32,4 -49,15l-11 -13 258 -203 10 14 -10 8c-21,16 -33,31 -37,43 -2,9 0,17 6,25 4,5 8,10 14,13 2,2 14,9 35,21l82 44zm35 19l222 119 -61 -246 -161 127zm-519 898l-99 -154 15 -9c31,30 58,49 79,57 20,9 43,12 68,9 14,-2 35,-11 61,-29l43 -27 -282 -441c-18,-30 -32,-47 -40,-53 -7,-5 -18,-7 -31,-7 -12,0 -27,6 -43,16l-19 12 -9 -15 297 -190 10 15 -19 12c-16,10 -28,22 -34,34 -5,9 -6,19 -4,32 1,8 11,27 30,56l282 441 41 -26c38,-25 61,-50 68,-78 9,-38 4,-80 -16,-126l16 -11 99 155 -513 327zm-713 -353l-9 -15 305 -177 9 15 -19 11c-17,10 -29,21 -36,33 -5,8 -7,19 -5,31 1,9 10,28 27,57l225 387c17,30 30,48 37,54 8,5 18,8 31,8 13,1 27,-4 44,-14l19 -11 9 15 -305 177 -9 -15 19 -11c17,-10 29,-21 36,-33 5,-8 7,-18 5,-31 -1,-8 -10,-28 -27,-57l-225 -387c-17,-30 -30,-48 -37,-54 -8,-5 -18,-8 -31,-8 -13,0 -28,4 -44,14l-19 11zm-641 1011l-86 -219 18 -7c37,52 79,87 128,103 49,16 97,15 144,-4 40,-15 71,-40 95,-76 24,-35 36,-75 37,-117 1,-55 -9,-111 -32,-168 -22,-57 -49,-106 -81,-147 -33,-40 -69,-67 -108,-79 -40,-12 -84,-8 -132,11 -40,15 -73,38 -99,68 -26,30 -49,74 -69,131l-21 -55c20,-50 47,-92 78,-123 32,-32 74,-58 125,-78 67,-26 132,-36 195,-29 62,7 118,30 166,69 48,40 83,88 106,145 23,60 30,124 20,190 -11,66 -37,125 -79,176 -41,50 -92,87 -152,111 -45,17 -95,26 -152,26 -33,-1 -53,1 -61,4 -10,4 -17,11 -21,21 -5,10 -5,24 -1,40l-18 7zm-482 -224l-57 -202c-10,-34 -17,-55 -23,-62 -6,-7 -16,-13 -28,-16 -13,-3 -28,-2 -46,3l-21 6 -5 -17 340 -96 4 17 -21 6c-19,5 -33,13 -43,23 -7,7 -11,17 -13,29 -1,8 3,29 12,62l122 431c9,33 17,54 23,61 6,7 15,13 27,16 13,4 28,3 47,-3l21 -6 5 17 -340 96 -5 -17 22 -6c19,-5 33,-13 42,-23 7,-7 12,-16 13,-29 1,-8 -2,-29 -12,-62l-52 -185 -231 65 52 185c9,34 17,54 23,62 6,7 15,12 28,15 12,4 28,3 46,-2l21 -6 5 17 -340 95 -5 -16 22 -6c19,-6 33,-13 42,-23 7,-7 12,-17 13,-29 2,-9 -2,-30 -12,-63l-121 -430c-10,-34 -17,-54 -23,-62 -6,-7 -15,-12 -28,-15 -13,-4 -28,-3 -46,2l-21 6 -5 -16 340 -96 4 16 -21 6c-19,6 -33,14 -42,23 -7,7 -12,17 -14,29 -1,9 3,30 12,63l58 203 231 -66zm-745 508l-49 -272 -14 3c-42,8 -70,26 -85,56 -14,30 -19,72 -15,124l-19 4 -63 -350 19 -3c11,37 25,67 42,89 17,22 34,36 53,41 18,5 43,5 75,-1l-34 -187c-7,-37 -12,-59 -17,-67 -5,-7 -12,-13 -21,-17 -10,-3 -24,-4 -43,0l-40 7c-62,11 -109,35 -142,70 -32,36 -51,85 -57,147l-18 3 -8 -217 575 -105 4 17 -22 4c-20,4 -35,10 -45,19 -8,6 -13,15 -15,27 -3,9 -1,30 6,64l79 440c6,30 10,49 13,55 5,11 13,19 23,24 14,7 32,8 54,4l22 -4 3 17 -558 102 -36 -198 19 -3c18,47 38,79 59,96 21,18 48,29 81,34 19,2 54,-1 105,-10l69 -13z"/>
    <path class="fil2 str2" d="M9872 16991l-259 -279c-37,-40 -68,-66 -93,-79 -19,-10 -38,-14 -57,-12l-2 -18 351 -26 2 17c-22,4 -36,8 -42,14 -6,5 -9,12 -9,19 1,14 19,40 52,76l170 183 23 -22 -14 -185c-2,-36 -6,-58 -11,-66 -4,-8 -13,-15 -24,-21 -12,-5 -31,-7 -56,-5l-1 -17 341 -26 1 17 -22 2c-20,2 -35,6 -47,14 -8,6 -14,14 -18,26 -3,8 -3,29 0,63l33 446c3,35 7,57 11,65 4,9 12,16 24,21 11,6 26,8 46,7l22 -2 1 17 -335 26 -2 -17c23,-2 40,-7 52,-14 8,-6 14,-14 18,-26 3,-8 4,-30 1,-64l-16 -211 -236 221c-33,31 -48,56 -47,73 1,13 9,22 24,29 8,3 26,4 55,3l1 17 -263 20 -1 -17c23,-4 41,-9 54,-17 13,-8 42,-34 88,-77l185 -175zm-1053 -164l32 -237 600 17 0 18 -23 -1c-19,-1 -35,3 -47,9 -9,5 -16,13 -21,24 -4,8 -6,29 -7,63l-13 447c-1,35 1,57 4,66 4,8 11,16 22,23 10,7 25,11 44,11l23 1 -1 17 -361 -10 1 -17 29 1c20,0 36,-3 48,-10 9,-4 16,-12 22,-23 3,-8 6,-29 7,-64l12 -432c1,-35 -1,-57 -4,-67 -4,-9 -11,-16 -23,-22 -8,-3 -28,-5 -60,-6l-56 -1c-36,-1 -66,4 -90,16 -24,12 -46,31 -64,58 -18,27 -36,67 -53,120l-21 -1zm-476 -89l236 29 37 -62c12,-20 19,-38 21,-53 2,-19 -4,-34 -18,-45 -8,-6 -29,-13 -64,-20l2 -17 223 28 -2 17c-24,1 -45,8 -63,23 -17,14 -41,46 -70,95l-307 507 -9 -2 -174 -581c-17,-56 -32,-91 -45,-107 -10,-12 -25,-20 -46,-24l3 -17 325 40 -2 18 -14 -2c-26,-3 -45,-2 -56,4 -8,5 -13,12 -14,22 -1,6 0,12 1,19 0,3 3,16 10,40l26 88zm12 39l71 241 132 -216 -203 -25zm-703 344l-230 -485 -66 284c-9,40 -10,68 -2,85 11,23 35,38 72,46l-4 17 -218 -51 4 -17c29,3 49,3 60,-1 10,-3 20,-11 29,-23 8,-11 16,-33 23,-64l127 -551 17 4 318 654 98 -421c9,-38 6,-66 -8,-83 -15,-18 -33,-29 -55,-34l-16 -4 4 -17 235 55 -4 16c-37,-8 -64,-6 -81,5 -18,12 -31,35 -39,71l-109 467 10 20c10,21 20,36 29,44 9,8 24,15 44,20l-4 17 -234 -54zm-1213 -329l76 -226 17 6c0,68 16,126 48,172 31,46 72,78 122,95 49,16 93,16 134,0 41,-16 77,-46 106,-90 30,-44 53,-91 70,-142 21,-61 32,-117 33,-169 1,-51 -11,-93 -36,-125 -25,-33 -59,-57 -104,-72 -15,-5 -31,-9 -49,-11 -17,-2 -35,-3 -54,-2l-45 132c-9,26 -13,43 -12,52 1,9 6,18 15,28 8,9 20,17 36,22l16 6 -5 16 -313 -105 6 -17c24,7 42,9 53,7 11,-2 21,-8 30,-17 5,-5 11,-20 20,-44l44 -133c48,-4 95,-3 142,2 48,6 95,17 143,33 61,21 108,46 143,76 35,30 63,64 84,101 22,38 36,76 42,116 7,51 2,103 -17,157 -32,97 -94,167 -184,210 -91,44 -187,48 -290,13 -32,-10 -60,-22 -84,-36 -13,-7 -33,-22 -60,-44 -27,-23 -44,-35 -49,-37 -9,-3 -18,-2 -28,2 -10,4 -21,13 -34,29l-16 -5zm-330 -683l216 97 54 -48c18,-16 29,-31 35,-44 8,-18 7,-34 -3,-49 -6,-8 -25,-21 -56,-38l8 -16 205 93 -7 16c-24,-7 -46,-6 -67,3 -21,9 -53,32 -96,70l-442 394 -9 -4 5 -607c1,-58 -3,-97 -11,-115 -6,-15 -18,-27 -36,-37l7 -16 299 135 -7 16 -13 -6c-24,-11 -42,-15 -55,-12 -9,2 -15,7 -19,16 -3,6 -5,12 -5,19 -1,3 -2,17 -2,41l-1 92zm-1 40l-2 252 189 -168 -187 -84zm-765 117l-81 -531 -145 253c-20,36 -29,63 -26,81 4,25 23,47 56,65l-9 15 -194 -112 9 -15c26,11 45,17 57,17 11,-1 23,-5 34,-14 12,-9 25,-27 41,-55l281 -490 15 8 116 718 215 -375c19,-34 25,-61 16,-82 -8,-21 -23,-37 -43,-49l-14 -8 9 -15 209 120 -8 16c-33,-19 -59,-25 -80,-19 -20,6 -39,24 -57,56l-239 416 4 22c3,23 8,40 15,50 6,11 18,22 36,32l-9 16 -208 -120zm-817 -541l-11 13 -284 -221 11 -14 17 14c16,12 31,19 44,21 10,1 20,-1 31,-7 8,-4 22,-20 43,-47l205 -262c40,-51 74,-84 103,-100 28,-15 61,-20 100,-15 38,4 76,21 112,50 45,35 72,75 81,120 10,46 3,82 -19,111 -15,18 -32,29 -52,32 -21,2 -39,-3 -55,-16 -16,-12 -26,-28 -29,-47 -3,-18 2,-35 13,-50 6,-8 12,-13 18,-17 3,-2 13,-5 28,-11 15,-5 25,-9 28,-14 6,-7 7,-15 4,-25 -4,-16 -14,-29 -30,-42 -11,-8 -23,-13 -35,-13 -12,0 -24,5 -36,15 -13,10 -41,43 -84,99l-223 285c-22,28 -34,46 -36,55 -3,10 -1,20 3,32 5,12 15,24 30,36l23 18zm-333 -875l180 155 65 -30c22,-11 37,-22 47,-33 13,-14 16,-30 11,-47 -4,-10 -18,-28 -43,-53l12 -13 170 148 -12 13c-20,-13 -42,-19 -65,-16 -23,2 -60,15 -111,40l-537 249 -7 -6 179 -580c17,-55 25,-93 22,-113 -1,-16 -9,-31 -24,-46l11 -13 248 215 -11 13 -11 -9c-19,-17 -36,-26 -49,-27 -9,-1 -17,2 -23,10 -4,5 -8,10 -11,16 -1,3 -6,16 -13,39l-28 88zm-12 38l-75 241 230 -107 -155 -134zm-599 -603l-460 152 -179 -208 13 -12 14 17c13,15 26,25 40,29 9,3 19,3 31,0 8,-3 25,-15 51,-38l339 -292c26,-22 42,-38 46,-47 4,-8 5,-19 3,-32 -3,-12 -10,-26 -22,-40l-15 -17 13 -11 231 267 -13 11 -15 -16c-13,-15 -26,-25 -39,-29 -9,-4 -19,-3 -31,0 -9,3 -26,15 -52,38l-380 327 638 -206 8 9 -292 601 361 -312c26,-22 41,-36 45,-42 10,-14 14,-30 13,-48 -2,-18 -13,-39 -33,-62l13 -12 152 176 -13 11 -5 -5c-9,-12 -20,-21 -33,-27 -12,-6 -24,-9 -35,-9 -11,1 -24,5 -38,13 -3,2 -16,13 -40,33l-324 280c-27,22 -42,38 -46,46 -4,9 -5,19 -3,32 3,13 10,27 22,41l15 17 -14 11 -180 -209 214 -437zm-367 -808l14 -10 205 287 -14 10 -13 -18c-11,-16 -24,-27 -36,-33 -9,-4 -20,-5 -32,-2 -8,2 -26,13 -54,32l-364 260c-29,21 -45,35 -50,43 -5,8 -7,18 -6,31 1,13 7,27 18,43l13 18 -14 10 -205 -287 14 -10 13 18c11,16 23,26 36,32 9,4 19,5 32,2 8,-1 26,-12 54,-32l364 -260c29,-20 45,-34 50,-43 5,-8 7,-18 6,-31 -1,-13 -7,-27 -18,-42l-13 -18zm-969 -272l15 -10c14,17 29,28 44,33 21,6 67,8 139,4l287 -10 138 -89c30,-19 47,-32 53,-40 5,-7 7,-18 7,-30 0,-13 -5,-27 -15,-42l-21 -32 15 -9 205 319 -14 9 -19 -30c-11,-16 -23,-28 -35,-34 -9,-4 -19,-5 -31,-4 -9,2 -28,12 -57,30l-114 74 -159 292c-31,58 -47,95 -49,111 -2,17 3,34 15,53l-15 9 -176 -273 15 -9 8 12c10,16 20,26 30,30 8,3 16,3 21,0 10,-7 29,-35 56,-84l121 -224 -237 7c-59,2 -96,8 -109,17 -8,5 -12,12 -13,23 -1,14 6,34 21,61l-14 9 -112 -173zm251 -590l107 212 73 -4c24,-2 42,-6 55,-12 17,-9 27,-22 28,-40 1,-11 -6,-32 -19,-65l15 -8 102 201 -16 8c-14,-20 -32,-33 -54,-40 -22,-6 -61,-8 -118,-5l-592 29 -4 -9 385 -469c37,-45 58,-77 64,-97 4,-15 2,-31 -6,-51l16 -8 148 293 -16 8 -6 -12c-11,-24 -23,-39 -35,-45 -8,-4 -16,-4 -25,1 -6,3 -11,6 -16,11 -2,2 -11,12 -27,31l-59 71zm-25 31l-161 194 253 -12 -92 -182zm-782 -680l170 -68 6 16c-35,26 -59,48 -71,67 -13,19 -20,41 -22,66 -1,14 5,36 16,65l19 48 487 -193c33,-13 52,-23 59,-29 7,-7 11,-17 13,-29 2,-13 0,-28 -7,-46l-9 -21 17 -6 129 328 -16 7 -8 -21c-7,-18 -16,-32 -27,-40 -8,-6 -18,-10 -30,-10 -9,0 -29,6 -61,18l-487 193 18 46c17,42 38,69 63,81 36,17 78,19 128,8l7 18 -171 68 -223 -566zm485 -634l16 -5 114 334 -17 5 -7 -21c-6,-18 -15,-32 -25,-41 -7,-7 -17,-11 -29,-11 -9,-1 -30,4 -62,15l-424 144c-33,11 -53,20 -60,26 -7,6 -12,16 -14,28 -3,13 -1,28 5,46l7 21 -16 6 -114 -334 17 -6 7 21c6,19 14,32 25,41 7,7 17,11 29,12 9,1 30,-4 62,-15l423 -144c34,-11 54,-20 61,-27 7,-6 12,-15 14,-28 3,-13 1,-28 -5,-46l-7 -21zm-532 -154c-19,5 -33,10 -42,15 -9,6 -22,16 -40,31 -18,16 -33,25 -44,27 -15,4 -29,2 -43,-6 -14,-8 -23,-18 -25,-31 -4,-14 -1,-27 7,-40 8,-13 20,-21 37,-25 14,-3 31,-2 52,4 21,5 37,8 48,9 10,0 25,-1 45,-4 -12,-17 -21,-28 -28,-35 -8,-6 -21,-15 -41,-26 -27,-16 -42,-33 -47,-52 -3,-14 -1,-27 6,-39 7,-12 17,-20 30,-23 14,-3 28,0 41,10 14,9 23,23 27,43 2,6 4,18 7,35 1,7 3,16 5,25 3,12 8,30 15,54 13,-18 21,-31 25,-40 4,-9 9,-25 14,-46 5,-21 12,-38 21,-49 7,-8 17,-13 29,-16 14,-3 27,-2 38,6 12,7 20,17 23,30 3,14 0,28 -9,42 -8,14 -27,26 -55,37 -19,7 -32,14 -40,19 -8,5 -19,14 -33,28 19,7 34,11 45,13 10,1 24,1 42,-1 30,-2 52,0 66,9 13,8 22,19 25,33 3,14 1,26 -5,38 -7,12 -17,19 -30,22 -12,3 -25,2 -37,-3 -12,-5 -25,-16 -41,-33 -15,-17 -27,-29 -34,-35 -7,-6 -20,-15 -37,-26l10 53c2,9 4,17 7,25 6,19 10,32 11,39 5,19 3,35 -5,49 -7,14 -18,23 -33,26 -13,4 -26,1 -37,-6 -12,-7 -20,-18 -23,-33 -5,-20 0,-42 15,-65 15,-24 24,-39 27,-45 4,-9 7,-24 11,-43z"/>
   </g>
   <g>
    <path class="fil3 str2" d="M9248 5908l1259 -704 1009 -561c55,-30 111,-50 206,-52l1 209c51,-59 200,7 303,18 15,851 30,1702 45,2554l-694 362c12,20 441,212 497,251 -23,688 19,289 -294,598 -96,94 -93,164 -241,188 -47,-38 -215,-414 -496,-69 -71,87 -28,184 14,307 130,378 200,246 514,326 45,86 78,235 116,322 92,206 323,371 326,575 0,46 -5,138 -9,185 -10,113 7,94 -46,170 -130,100 -1919,-1021 -2182,-1121 -395,162 -260,162 -655,0 -263,100 -2052,1221 -2182,1121 -53,-76 -36,-57 -46,-170 -4,-47 -9,-139 -9,-185 3,-204 234,-369 326,-575 38,-87 71,-236 116,-322 314,-80 384,52 514,-326 42,-123 85,-220 14,-307 -281,-345 -449,31 -496,69 -148,-24 -145,-94 -241,-188 -313,-309 -271,90 -294,-598 56,-39 485,-231 497,-251l-694 -362c15,-852 30,-1703 45,-2554 103,-11 252,-77 303,-18l1 -209c95,2 151,22 206,52l1009 561 1258 704zm428 2664c224,-113 449,-220 664,-328 1030,-516 692,-467 1355,-179 34,426 -126,200 -273,456 -148,-48 -271,-184 -488,-87 -98,44 -253,174 -315,281 8,180 80,410 157,538 99,163 194,209 462,231 269,704 431,543 388,895 -35,-7 -1897,-953 -1942,-1078 -3,-6 -53,-271 -56,-294 238,-189 1636,-785 1770,-935 -99,-61 -146,1 -251,59 -419,233 -1264,613 -1630,831l75 278c-7,6 -16,12 -21,16 -298,218 -347,218 -645,0 -5,-4 -14,-10 -21,-16l75 -278c-366,-218 -1211,-598 -1630,-831 -105,-58 -152,-120 -251,-59 134,150 1532,746 1770,935 -3,23 -53,288 -56,294 -45,125 -1907,1071 -1942,1078 -43,-352 119,-191 388,-895 268,-22 363,-68 462,-231 77,-128 149,-358 157,-538 -62,-107 -217,-237 -315,-281 -218,-97 -340,39 -488,87 -147,-256 -307,-30 -273,-456 663,-288 325,-337 1355,179 215,108 440,215 664,328 513,260 342,260 855,0zm191 -409l1917 -996 -62 -2194c112,-39 72,-52 200,-54l71 2300c5,100 -37,136 -160,194l-1204 595c-1724,851 -1037,851 -2761,0l-1204 -595c-123,-58 -165,-94 -160,-194l71 -2300c128,2 88,15 200,54l-62 2194 1917 996c729,396 508,396 1237,0zm-570 -2161l-2 2348c109,-22 2309,-1155 2400,-1241l-70 -2399c-145,22 -2158,1196 -2328,1292zm-97 0l2 2348c-109,-22 -2309,-1155 -2400,-1241l70 -2399c145,22 2158,1196 2328,1292z"/>
    <g>
     <path class="fil4 str3" d="M12105 5032l906 -473m-910 1203l754 -220m-747 463l930 -198m-928 402l664 -78m-3527 -376l3 -3193m140 3140l205 -2499m-11 2431l478 -2836m-265 2711l600 -2201m-362 2073l845 -2332m-531 2171l750 -1732m-378 1516l821 -1659m-456 1440l629 -1105m-249 916l655 -958m-348 876l492 -570m-414 755l831 -734m-591 836l556 -390m-537 849l707 -290m-718 549l1032 -371m-1022 1247l875 -2m-865 189l461 20"/>
     <path class="fil4 str3" d="M9110 5702l-205 -2499m11 2431l-478 -2836m265 2711l-600 -2201m362 2073l-845 -2332m531 2171l-750 -1732m378 1516l-821 -1659m456 1440l-629 -1105m249 916l-655 -958m348 876l-492 -570m414 755l-831 -734m591 836l-556 -390m542 621l-906 -473m901 701l-707 -290m718 549l-1032 -371m1030 614l-754 -220m747 463l-930 -198m928 402l-664 -78m665 264l-875 -2m865 189l-461 20"/>
    </g>
   </g>
   <path class="fil2" d="M5453 10956l-548 881 177 0c84,0 143,-6 176,-16 55,-17 102,-47 141,-92 39,-44 67,-103 82,-178l27 0 -38 338 -853 0 548 -883 -138 0c-54,0 -89,2 -106,5 -32,6 -62,18 -90,35 -29,18 -52,42 -71,71 -18,29 -33,66 -43,111l-26 0 26 -272 736 0zm593 909l0 24 -485 0 0 -24 30 0c27,0 49,-5 65,-15 12,-6 22,-17 28,-33 5,-11 7,-40 7,-87l0 -615c0,-48 -2,-78 -7,-90 -5,-12 -15,-23 -31,-32 -15,-9 -35,-13 -62,-13l-30 0 0 -24 485 0 0 24 -31 0c-26,0 -48,4 -64,14 -12,7 -21,18 -28,33 -5,11 -8,40 -8,88l0 615c0,48 3,78 8,90 5,12 15,22 31,31 15,9 36,14 61,14l31 0zm1035 -909l0 24c-31,4 -54,13 -71,26 -22,20 -58,72 -108,159l-203 339 0 226c0,48 3,78 8,90 5,12 15,22 30,31 15,9 34,14 59,14l53 0 0 24 -523 0 0 -24 49 0c27,0 49,-5 65,-15 12,-6 21,-17 28,-33 5,-11 8,-40 8,-87l0 -188 -220 -401c-44,-79 -74,-126 -92,-140 -18,-14 -42,-21 -72,-21l0 -24 447 0 0 24 -20 0c-27,0 -46,4 -57,11 -10,8 -16,17 -16,26 0,16 19,58 55,126l170 308 168 -281c41,-69 62,-115 62,-138 0,-13 -6,-23 -18,-32 -15,-11 -44,-18 -86,-20l0 -24 284 0zm558 -12c149,-5 270,38 362,130 93,92 140,207 140,346 0,118 -35,221 -104,311 -92,119 -221,179 -389,179 -168,0 -297,-57 -389,-170 -73,-90 -109,-197 -109,-320 0,-138 47,-253 141,-345 95,-93 211,-136 348,-131zm8 44c-85,0 -150,43 -195,130 -36,72 -54,174 -54,308 0,159 28,276 84,352 39,53 94,80 164,80 47,0 87,-12 119,-35 40,-29 72,-76 94,-140 23,-64 34,-148 34,-251 0,-124 -11,-216 -34,-277 -23,-61 -53,-104 -88,-129 -36,-25 -77,-38 -124,-38zm979 649l-401 0 0 -142 401 0 0 142zm893 -681l-548 881 177 0c84,0 143,-6 176,-16 55,-17 102,-47 141,-92 40,-44 67,-103 82,-178l27 0 -38 338 -853 0 548 -883 -138 0c-53,0 -89,2 -106,5 -32,6 -62,18 -90,35 -28,18 -52,42 -70,71 -19,29 -33,66 -44,111l-26 0 26 -272 736 0zm112 0l481 0 0 24 -24 0c-36,0 -61,3 -75,11 -13,8 -23,18 -29,31 -5,14 -8,47 -8,101l0 457c0,83 6,138 19,165 12,27 33,50 62,68 29,18 65,26 109,26 50,0 93,-11 129,-34 35,-22 62,-54 79,-93 18,-40 27,-110 27,-209l0 -380c0,-42 -5,-72 -13,-90 -9,-18 -20,-30 -33,-38 -21,-10 -50,-15 -88,-15l0 -24 322 0 0 24 -19 0c-26,0 -47,5 -65,15 -17,11 -30,27 -38,48 -5,15 -9,42 -9,80l0 354c0,110 -7,189 -21,237 -15,49 -50,94 -105,135 -56,40 -132,61 -229,61 -81,0 -143,-11 -187,-33 -60,-29 -102,-66 -127,-112 -25,-46 -37,-108 -37,-185l0 -457c0,-54 -3,-88 -9,-101 -6,-13 -16,-23 -31,-31 -15,-8 -42,-12 -81,-11l0 -24zm1570 358l327 410c46,58 86,98 119,119 25,14 50,22 77,22l0 24 -484 0 0 -24c31,-3 50,-8 59,-15 9,-7 14,-15 14,-26 0,-19 -21,-56 -63,-109l-214 -269 -35 28 0 256c0,49 3,79 8,91 6,12 17,22 32,31 16,9 41,13 76,13l0 24 -470 0 0 -24 30 0c27,0 49,-5 66,-15 12,-6 21,-17 27,-33 5,-11 7,-40 7,-87l0 -615c0,-48 -2,-78 -7,-90 -5,-12 -15,-23 -31,-32 -15,-9 -35,-13 -62,-13l-30 0 0 -24 463 0 0 24c-32,0 -56,4 -72,13 -12,7 -22,18 -29,33 -5,11 -8,41 -8,89l0 291 347 -279c48,-40 72,-72 72,-96 0,-17 -10,-31 -29,-42 -10,-5 -35,-8 -75,-9l0 -24 363 0 0 24c-33,2 -58,8 -77,17 -19,10 -61,42 -128,97l-273 220zm1095 0l327 410c46,58 86,98 119,119 24,14 50,22 77,22l0 24 -484 0 0 -24c30,-3 50,-8 59,-15 9,-7 13,-15 13,-26 0,-19 -20,-56 -63,-109l-213 -269 -35 28 0 256c0,49 3,79 8,91 6,12 16,22 32,31 16,9 41,13 75,13l0 24 -470 0 0 -24 31 0c27,0 49,-5 65,-15 12,-6 21,-17 28,-33 5,-11 7,-40 7,-87l0 -615c0,-48 -2,-78 -7,-90 -5,-12 -16,-23 -31,-32 -15,-9 -36,-13 -62,-13l-31 0 0 -24 463 0 0 24c-31,0 -55,4 -72,13 -12,7 -21,18 -28,33 -5,11 -8,41 -8,89l0 291 347 -279c48,-40 72,-72 72,-96 0,-17 -10,-31 -30,-42 -10,-5 -35,-8 -74,-9l0 -24 362 0 0 24c-32,2 -58,8 -76,17 -19,10 -62,42 -128,97l-273 220zm1051 -370c149,-5 269,38 362,130 93,92 140,207 140,346 0,118 -35,221 -104,311 -92,119 -221,179 -389,179 -168,0 -298,-57 -389,-170 -73,-90 -109,-197 -109,-320 0,-138 47,-253 141,-345 95,-93 210,-136 348,-131zm8 44c-85,0 -150,43 -195,130 -36,72 -54,174 -54,308 0,159 28,276 84,352 39,53 94,80 164,80 47,0 87,-12 119,-35 40,-29 72,-76 94,-140 23,-64 34,-148 34,-251 0,-124 -12,-216 -35,-277 -23,-61 -52,-104 -87,-129 -36,-25 -77,-38 -124,-38zm-8936 1526l481 0 0 24 -24 0c-36,0 -61,4 -75,12 -13,7 -23,18 -28,31 -6,13 -9,47 -9,101l0 456c0,84 6,139 19,166 12,27 33,49 62,67 29,18 65,27 109,27 51,0 94,-11 129,-34 35,-23 62,-54 79,-94 18,-40 27,-109 27,-208l0 -380c0,-42 -4,-72 -13,-90 -9,-18 -20,-31 -33,-38 -21,-10 -50,-16 -88,-16l0 -24 323 0 0 24 -20 0c-26,0 -47,6 -65,16 -17,11 -30,27 -37,48 -6,15 -9,41 -9,80l0 354c0,109 -8,189 -22,237 -14,49 -49,93 -105,134 -56,41 -132,61 -229,61 -81,0 -143,-10 -187,-32 -60,-29 -102,-67 -127,-113 -24,-45 -37,-107 -37,-185l0 -456c0,-54 -3,-88 -9,-101 -6,-13 -16,-24 -31,-32 -14,-8 -41,-11 -81,-11l0 -24zm1655 616l255 -616 377 0 0 24 -30 0c-27,0 -49,5 -66,15 -11,7 -20,17 -27,33 -5,11 -7,40 -7,87l0 615c0,48 2,78 7,90 5,12 15,23 31,32 15,9 36,13 62,13l30 0 0 24 -485 0 0 -24 30 0c27,0 49,-4 66,-14 11,-7 20,-18 27,-33 5,-11 8,-41 8,-88l0 -690 -359 849 -16 0 -363 -843 0 656c0,46 1,75 3,85 6,23 19,42 39,57 20,14 51,21 94,21l0 24 -319 0 0 -24 9 0c21,1 40,-2 58,-10 18,-7 32,-17 41,-28 9,-12 16,-29 21,-51 1,-5 1,-29 1,-71l0 -590c0,-48 -2,-78 -7,-90 -5,-11 -15,-22 -31,-31 -16,-9 -37,-14 -63,-14l-29 0 0 -24 380 0 263 616zm690 -616l481 0 0 24 -24 0c-36,0 -61,4 -75,12 -13,7 -23,18 -29,31 -6,13 -8,47 -8,101l0 456c0,84 6,139 18,166 13,27 34,49 63,67 28,18 65,27 109,27 50,0 93,-11 129,-34 35,-23 62,-54 79,-94 18,-40 27,-109 27,-208l0 -380c0,-42 -5,-72 -13,-90 -9,-18 -20,-31 -34,-38 -20,-10 -49,-16 -87,-16l0 -24 322 0 0 24 -19 0c-26,0 -48,6 -65,16 -17,11 -30,27 -38,48 -6,15 -9,41 -9,80l0 354c0,109 -7,189 -21,237 -15,49 -50,93 -105,134 -57,41 -133,61 -229,61 -81,0 -143,-10 -187,-32 -60,-29 -102,-67 -127,-113 -25,-45 -37,-107 -37,-185l0 -456c0,-54 -3,-88 -9,-101 -6,-13 -16,-24 -31,-32 -15,-8 -42,-11 -81,-11l0 -24zm1655 616l255 -616 377 0 0 24 -30 0c-27,0 -49,5 -66,15 -11,7 -20,17 -27,33 -5,11 -8,40 -8,87l0 615c0,48 3,78 8,90 5,12 15,23 31,32 15,9 36,13 62,13l30 0 0 24 -485 0 0 -24 30 0c27,0 49,-4 65,-14 12,-7 21,-18 28,-33 5,-11 7,-41 7,-88l0 -690 -358 849 -16 0 -364 -843 0 656c0,46 1,75 4,85 6,23 19,42 39,57 20,14 51,21 94,21l0 24 -320 0 0 -24 10 0c21,1 40,-2 58,-10 18,-7 31,-17 40,-28 10,-12 17,-29 22,-51 1,-5 1,-29 1,-71l0 -590c0,-48 -2,-78 -7,-90 -5,-11 -16,-22 -31,-31 -16,-9 -37,-14 -63,-14l-30 0 0 -24 381 0 263 616zm1545 -616l0 252 -24 0c-14,-58 -31,-100 -48,-125 -18,-26 -43,-46 -74,-61 -17,-8 -48,-12 -92,-12l-70 0 0 720c0,48 3,78 8,90 5,12 15,23 30,32 16,9 36,13 62,13l31 0 0 24 -486 0 0 -24 31 0c27,0 48,-4 65,-14 12,-7 21,-18 28,-33 5,-11 7,-41 7,-88l0 -720 -67 0c-63,0 -108,13 -136,40 -40,37 -65,89 -75,158l-27 0 0 -252 837 0zm531 667l-327 0 -40 91c-13,31 -19,56 -19,76 0,27 10,46 31,59 12,7 43,13 91,16l0 24 -309 0 0 -24c33,-5 61,-19 82,-42 21,-23 48,-70 80,-142l333 -743 13 0 336 764c32,73 58,119 79,138 16,15 38,23 66,25l0 24 -451 0 0 -24 19 0c36,0 62,-5 76,-15 10,-7 15,-18 15,-32 0,-8 -1,-17 -4,-26 -1,-4 -8,-22 -20,-52l-51 -117zm-22 -50l-140 -318 -142 318 282 0zm479 -180l0 -30c53,-23 91,-53 115,-89 24,-37 36,-74 36,-113 0,-7 -2,-13 -5,-17 -3,-4 -6,-6 -10,-6 -3,0 -7,2 -12,5 -13,8 -30,12 -49,12 -27,0 -51,-11 -71,-32 -19,-21 -29,-46 -29,-74 0,-30 11,-57 34,-80 23,-22 51,-34 83,-34 40,0 73,15 101,46 28,30 42,72 42,125 0,66 -20,124 -59,175 -40,50 -98,88 -176,112zm1229 170l-36 326 -826 0 0 -24 31 0c27,0 49,-4 65,-14 12,-7 21,-18 28,-33 5,-11 7,-41 7,-88l0 -615c0,-48 -2,-78 -7,-90 -5,-12 -16,-22 -31,-31 -15,-9 -36,-14 -62,-14l-31 0 0 -24 497 0 0 24 -41 0c-27,0 -48,5 -65,15 -12,6 -21,17 -28,33 -5,11 -8,40 -8,87l0 596c0,47 3,78 8,91 6,13 16,23 32,29 12,4 40,6 83,6l78 0c49,0 90,-8 123,-26 33,-17 61,-45 85,-82 24,-38 47,-93 68,-166l30 0zm563 302l0 24 -486 0 0 -24 31 0c27,0 49,-4 65,-14 12,-7 21,-18 27,-33 5,-11 8,-41 8,-88l0 -615c0,-48 -3,-78 -8,-90 -5,-12 -15,-22 -30,-31 -15,-9 -36,-14 -62,-14l-31 0 0 -24 486 0 0 24 -31 0c-27,0 -48,5 -65,15 -12,6 -21,17 -28,33 -5,11 -7,40 -7,87l0 615c0,48 2,78 7,90 6,12 16,23 31,32 15,9 36,13 62,13l31 0zm705 -293l254 -616 378 0 0 24 -30 0c-28,0 -50,5 -66,15 -12,7 -21,17 -28,33 -4,11 -7,40 -7,87l0 615c0,48 3,78 7,90 6,12 16,23 31,32 16,9 37,13 63,13l30 0 0 24 -486 0 0 -24 31 0c27,0 49,-4 65,-14 12,-7 21,-18 28,-33 5,-11 7,-41 7,-88l0 -690 -358 849 -17 0 -363 -843 0 656c0,46 1,75 4,85 6,23 19,42 38,57 20,14 52,21 95,21l0 24 -320 0 0 -24 10 0c21,1 40,-2 58,-10 18,-7 31,-17 40,-28 10,-12 17,-29 22,-51 0,-5 1,-29 1,-71l0 -590c0,-48 -2,-78 -8,-90 -4,-11 -15,-22 -31,-31 -15,-9 -36,-14 -62,-14l-30 0 0 -24 381 0 263 616zm-6920 1558l255 -615 377 0 0 24 -30 0c-27,0 -49,5 -66,15 -11,6 -20,17 -27,32 -5,12 -8,41 -8,88l0 615c0,48 3,78 8,90 5,12 15,23 31,32 15,9 36,13 62,13l30 0 0 24 -485 0 0 -24 30 0c27,0 49,-5 66,-14 11,-7 20,-18 27,-34 5,-11 8,-40 8,-87l0 -691 -359 850 -16 0 -363 -843 0 656c0,46 1,74 3,85 6,23 19,42 39,56 20,15 51,22 94,22l0 24 -319 0 0 -24 9 0c21,1 40,-3 58,-10 18,-7 32,-17 41,-29 9,-12 16,-29 21,-50 1,-6 1,-29 1,-71l0 -590c0,-48 -2,-78 -7,-90 -5,-12 -15,-22 -31,-32 -16,-9 -37,-13 -63,-13l-29 0 0 -24 380 0 263 615zm1242 52l-327 0 -40 91c-13,31 -20,56 -20,76 0,26 11,46 32,58 12,8 43,13 91,17l0 24 -310 0 0 -24c34,-5 61,-19 83,-42 21,-23 48,-70 80,-142l333 -743 13 0 336 764c32,73 58,119 79,138 16,15 37,23 66,25l0 24 -451 0 0 -24 19 0c36,0 61,-5 76,-15 10,-8 15,-18 15,-32 0,-9 -1,-17 -4,-26 -1,-4 -8,-22 -21,-53l-50 -116zm-23 -51l-139 -317 -142 317 281 0zm1041 -258l327 411c46,58 86,97 119,118 25,15 50,22 77,22l0 24 -484 0 0 -24c31,-3 50,-8 59,-14 9,-7 14,-16 14,-26 0,-20 -21,-56 -63,-110l-214 -268 -35 28 0 255c0,49 3,80 8,92 6,11 17,22 32,30 16,9 41,13 76,13l0 24 -471 0 0 -24 31 0c27,0 49,-5 65,-14 12,-7 22,-18 28,-34 5,-11 7,-40 7,-87l0 -615c0,-48 -2,-78 -7,-90 -5,-12 -15,-23 -31,-32 -15,-9 -36,-13 -62,-13l-31 0 0 -24 464 0 0 24c-32,0 -56,5 -73,14 -11,6 -21,17 -28,32 -5,12 -8,41 -8,89l0 291 347 -279c48,-40 72,-72 72,-95 0,-18 -10,-32 -29,-42 -11,-5 -35,-9 -75,-10l0 -24 363 0 0 24c-33,2 -59,8 -77,18 -19,9 -61,41 -128,96l-273 220zm1397 -358l0 252 -24 0c-15,-58 -31,-100 -49,-125 -18,-26 -43,-46 -74,-61 -17,-8 -48,-13 -91,-13l-71 0 0 721c0,48 3,78 8,90 5,12 16,23 31,32 15,9 35,13 62,13l30 0 0 24 -485 0 0 -24 30 0c27,0 49,-5 65,-14 12,-7 21,-18 28,-34 5,-11 8,-40 8,-87l0 -721 -68 0c-62,0 -108,14 -136,40 -40,37 -65,90 -75,159l-27 0 0 -252 838 0zm530 667l-326 0 -41 91c-13,31 -19,56 -19,76 0,26 10,46 31,58 13,8 43,13 92,17l0 24 -310 0 0 -24c33,-5 61,-19 82,-42 22,-23 49,-70 80,-142l333 -743 13 0 336 764c32,73 59,119 79,138 16,15 38,23 67,25l0 24 -451 0 0 -24 18 0c36,0 62,-5 76,-15 11,-8 15,-18 15,-32 0,-9 -1,-17 -4,-26 0,-4 -7,-22 -20,-53l-51 -116zm-22 -51l-139 -317 -143 317 282 0zm1079 -178c89,21 151,46 187,75 52,42 78,96 78,162 0,71 -28,129 -85,175 -69,55 -170,83 -302,83l-473 0 0 -24c43,0 72,-4 87,-12 16,-8 27,-19 33,-31 6,-13 9,-45 9,-96l0 -607c0,-51 -3,-83 -9,-96 -6,-13 -17,-23 -33,-31 -16,-8 -45,-12 -87,-12l0 -24 447 0c107,0 182,10 227,29 44,19 79,47 105,85 26,37 38,78 38,120 0,45 -16,85 -49,120 -33,35 -90,63 -173,84zm-251 -19c66,0 115,-7 146,-22 31,-14 55,-35 72,-62 16,-26 25,-60 25,-101 0,-42 -9,-75 -25,-102 -16,-26 -40,-46 -71,-60 -30,-14 -79,-20 -147,-20l0 367zm0 54l0 299 0 34c0,25 6,44 19,56 12,13 31,19 55,19 36,0 69,-8 100,-24 30,-17 53,-40 70,-71 16,-31 24,-65 24,-103 0,-43 -9,-82 -27,-117 -19,-34 -45,-59 -81,-73 -36,-14 -89,-21 -160,-20zm1079 436l0 24 -486 0 0 -24 31 0c27,0 49,-5 65,-14 12,-7 21,-18 27,-34 5,-11 8,-40 8,-87l0 -615c0,-48 -3,-78 -8,-90 -5,-12 -15,-23 -30,-32 -15,-9 -36,-13 -62,-13l-31 0 0 -24 486 0 0 24 -31 0c-27,0 -48,5 -65,14 -12,7 -21,18 -28,34 -5,11 -7,40 -7,87l0 615c0,48 2,78 8,90 5,12 15,23 30,32 15,9 36,13 62,13l31 0z"/>
  </g>
 </g>
</svg>
